<?xml version="1.0" standalone="no"?>
<!DOCTYPE svg PUBLIC "-//W3C//DTD SVG 20010904//EN"
 "http://www.w3.org/TR/2001/REC-SVG-20010904/DTD/svg10.dtd">
<svg version="1.0" xmlns="http://www.w3.org/2000/svg"
 width="1646.000000pt" height="1646.000000pt" viewBox="0 0 1646.000000 1646.000000"
 preserveAspectRatio="xMidYMid meet">
<metadata>
Created by potrace 1.11, written by Peter Selinger 2001-2013
</metadata>
<g transform="translate(0.000000,1646.000000) scale(0.100000,-0.100000)"
fill="#000000" stroke="none">
<path d="M8094 16411 c-44 -21 -123 -55 -175 -76 -52 -21 -111 -46 -132 -57
-35 -18 -45 -18 -135 -7 -226 29 -360 27 -447 -6 -155 -59 -216 -75 -340 -90
-126 -16 -132 -18 -195 -60 -36 -25 -91 -53 -122 -64 -31 -11 -74 -31 -95 -45
-24 -17 -51 -26 -76 -26 -54 0 -178 -20 -202 -33 -11 -6 -63 -50 -115 -99 -52
-49 -141 -133 -198 -186 -85 -80 -245 -259 -275 -309 -14 -22 -39 -145 -47
-228 -9 -90 -27 -135 -111 -280 -32 -55 -65 -120 -75 -145 -10 -25 -25 -57
-35 -71 -10 -14 -25 -45 -35 -70 -9 -24 -21 -49 -25 -55 -5 -6 -15 -29 -23
-51 -18 -50 -68 -156 -78 -163 -20 -15 -44 -209 -40 -333 2 -74 1 -78 -17 -72
-18 5 -19 3 -11 -24 4 -16 11 -61 15 -98 5 -47 17 -89 41 -136 28 -56 34 -80
34 -132 0 -55 4 -69 34 -113 19 -27 42 -65 50 -83 8 -19 21 -45 29 -59 33 -56
46 -168 42 -365 -4 -215 -15 -303 -56 -427 -31 -91 -36 -149 -18 -195 7 -19 7
-63 -2 -153 -10 -104 -10 -149 2 -255 7 -72 14 -177 14 -235 0 -58 4 -111 8
-118 5 -7 6 -25 2 -40 -9 -44 14 -254 31 -280 8 -13 22 -62 30 -110 17 -97 43
-172 61 -172 6 0 27 -18 45 -41 29 -35 42 -42 81 -46 l47 -6 -7 -66 c-9 -82
-9 -88 6 -241 6 -69 23 -170 37 -225 14 -55 30 -121 34 -147 5 -25 15 -59 24
-76 39 -76 106 -256 106 -286 0 -19 13 -63 30 -98 16 -34 30 -73 30 -86 0 -13
13 -51 29 -85 50 -107 68 -151 75 -180 9 -36 53 -104 72 -111 8 -3 24 -27 36
-53 11 -27 27 -56 36 -66 31 -35 112 -194 112 -220 0 -11 16 -52 36 -91 34
-65 37 -80 40 -166 2 -52 9 -117 17 -144 8 -28 15 -105 16 -174 2 -81 9 -151
21 -201 10 -42 21 -87 23 -101 10 -58 6 76 -9 303 -9 133 -14 273 -11 310 5
55 2 79 -14 119 -20 51 -17 80 4 43 6 -11 41 -50 79 -87 37 -36 68 -71 68 -77
0 -5 25 -19 57 -31 34 -13 78 -41 111 -71 30 -28 77 -61 103 -75 37 -18 49
-30 49 -47 0 -32 74 -100 132 -121 31 -11 58 -31 79 -57 25 -31 37 -39 64 -39
19 0 56 -5 83 -11 l50 -10 12 -64 c7 -36 17 -68 24 -74 6 -5 43 -12 83 -16 71
-7 73 -8 110 -53 61 -74 93 -130 93 -162 0 -27 -7 -34 -64 -62 -47 -23 -66
-38 -71 -56 -3 -14 -22 -45 -42 -69 l-36 -44 40 7 c33 5 51 0 114 -32 68 -35
72 -39 44 -42 -54 -5 -105 -33 -105 -57 0 -16 15 -29 70 -55 38 -18 84 -49
102 -67 27 -28 47 -36 130 -55 96 -22 98 -23 98 -51 0 -24 3 -27 20 -22 18 6
20 2 20 -44 l0 -51 64 -32 c62 -30 64 -33 71 -77 7 -44 6 -47 -31 -78 l-39
-32 18 -30 c11 -19 17 -50 17 -93 l0 -63 -68 -32 c-37 -18 -112 -57 -167 -87
-86 -47 -112 -56 -185 -66 -47 -6 -120 -18 -162 -26 -61 -12 -94 -13 -155 -5
-43 5 -114 13 -159 16 -80 7 -80 7 -150 66 -87 74 -186 115 -299 125 -73 6
-85 10 -131 45 l-50 39 -17 97 c-10 54 -17 121 -17 150 0 28 -9 95 -20 150
-11 54 -20 127 -21 163 -1 73 -9 111 -24 112 -12 1 -19 -33 -45 -242 -11 -91
-31 -228 -45 -305 -14 -77 -32 -183 -40 -235 -16 -108 -35 -190 -95 -409 -24
-88 -39 -163 -36 -177 3 -12 32 -44 63 -71 54 -46 77 -69 149 -151 l31 -36 19
28 c20 32 24 25 -55 87 -23 18 -23 21 -12 76 19 94 48 98 92 11 29 -58 32 -61
45 -43 8 10 14 28 14 39 0 13 14 30 36 44 36 24 39 51 3 31 -26 -13 -36 -5
-19 16 8 9 10 27 6 48 l-6 32 34 -40 c31 -36 40 -41 101 -50 l67 -10 44 -105
c31 -76 43 -119 44 -156 l0 -52 -78 40 -78 40 -73 -37 -73 -36 21 -23 c18 -19
40 -26 112 -35 49 -6 137 -23 194 -37 99 -24 111 -24 227 -14 68 6 170 21 228
35 132 31 557 111 668 125 46 6 118 24 159 40 42 16 113 36 158 45 46 8 112
29 148 45 36 16 112 47 169 68 129 49 207 89 382 195 154 94 154 94 261 307
55 109 197 337 290 465 120 166 214 312 307 474 48 84 89 158 91 164 2 7 21 0
48 -15 34 -20 49 -24 68 -17 13 5 26 7 29 4 13 -12 -31 -163 -82 -280 -90
-208 -137 -301 -198 -393 -55 -82 -61 -102 -35 -102 13 0 244 247 335 357 28
34 108 146 176 250 140 210 172 251 183 239 4 -4 7 -73 5 -154 -3 -182 -10
-203 -167 -501 -63 -120 -115 -222 -115 -226 0 -36 -163 -300 -257 -417 -21
-25 -76 -95 -122 -155 -113 -143 -212 -241 -298 -291 -104 -61 -181 -131 -281
-255 -101 -128 -155 -205 -227 -329 -112 -195 -179 -300 -283 -447 -130 -183
-395 -600 -529 -831 -125 -217 -192 -317 -273 -409 -37 -42 -84 -103 -105
-136 -21 -33 -61 -85 -90 -115 -28 -30 -59 -67 -69 -82 -10 -16 -21 -28 -25
-28 -4 0 -17 18 -30 40 -12 22 -26 38 -30 35 -5 -2 -18 -33 -31 -67 -12 -35
-34 -79 -49 -98 -15 -19 -56 -78 -91 -130 -65 -98 -146 -203 -160 -208 -14 -5
-140 56 -180 88 -45 36 -52 36 -96 9 -30 -18 -39 -19 -95 -9 -35 6 -84 22
-109 35 -25 13 -64 27 -86 31 -21 4 -66 19 -100 34 -40 19 -87 30 -141 35 -80
7 -80 7 -102 45 -31 56 -78 87 -152 100 -35 6 -87 15 -115 21 l-50 10 -19 72
c-32 122 -121 398 -157 484 -39 92 -83 139 -121 129 -21 -5 -24 -14 -35 -108
-7 -57 -12 -129 -12 -160 0 -32 -4 -58 -8 -58 -4 0 -19 42 -32 93 -22 85 -24
116 -28 392 -2 165 1 433 8 595 6 162 15 422 20 576 5 155 14 319 20 365 17
142 13 226 -16 310 -37 109 -29 184 41 343 29 67 69 152 89 190 20 38 50 103
67 145 16 42 37 90 46 106 9 17 54 104 101 195 113 219 117 226 169 295 41 54
37 51 -43 -32 -72 -74 -102 -97 -157 -122 -37 -16 -80 -39 -95 -49 -15 -11
-45 -22 -67 -24 -22 -3 -76 -15 -120 -27 -44 -13 -143 -38 -220 -56 -98 -23
-157 -43 -195 -65 -107 -63 -164 -78 -522 -130 -332 -50 -345 -52 -428 -91
-80 -39 -184 -99 -365 -212 -44 -28 -129 -74 -190 -103 -60 -29 -130 -64 -155
-78 -25 -13 -79 -32 -120 -42 -94 -22 -174 -60 -270 -129 -41 -30 -92 -67
-114 -82 -72 -52 -262 -262 -356 -393 -51 -72 -137 -178 -191 -237 -118 -126
-224 -263 -273 -353 -45 -84 -110 -307 -141 -487 -32 -181 -31 -200 5 -280 43
-94 41 -140 -11 -237 l-40 -77 97 -182 c570 -1070 1348 -1945 2299 -2586 655
-442 1313 -737 2070 -930 719 -183 1499 -235 2238 -151 2604 298 4808 2165
5695 4825 49 147 132 425 132 442 0 5 -14 17 -30 27 -17 9 -70 55 -118 100
-64 62 -109 95 -172 126 -47 23 -110 60 -141 81 -31 21 -114 68 -185 104 -71
37 -152 82 -180 100 -79 53 -160 85 -194 78 -49 -9 -229 86 -444 234 -130 90
-448 253 -492 253 -48 0 -172 59 -299 143 -66 44 -129 87 -140 97 -28 24 -130
84 -212 124 -38 19 -97 51 -129 70 -32 20 -64 36 -71 36 -20 0 -287 197 -313
231 -44 58 -89 96 -153 129 -39 21 -96 67 -153 123 -75 73 -101 92 -148 108
-83 28 -224 113 -366 220 -101 76 -169 115 -232 133 -48 13 -100 30 -183 58
-16 6 -61 21 -100 35 -38 13 -74 28 -79 33 -6 6 -17 10 -26 10 -29 0 -87 59
-117 118 -15 31 -44 72 -63 92 -28 28 -44 61 -78 164 l-43 128 -5 207 c-6 202
-6 208 21 306 15 55 31 120 36 144 5 24 22 65 38 90 16 25 32 59 35 75 4 16
24 49 45 75 61 75 102 147 118 208 16 61 76 181 124 247 16 22 36 62 45 90 10
28 26 63 37 77 14 20 21 52 27 120 4 52 12 114 18 139 6 25 14 62 17 83 3 20
11 37 17 37 6 0 32 10 57 21 108 50 156 76 189 102 19 15 39 27 44 27 16 0 66
121 92 222 13 53 30 107 37 119 7 14 11 58 10 114 -2 74 2 104 22 160 27 77
47 156 47 183 0 10 12 47 26 83 15 35 30 96 35 136 13 99 61 240 111 320 59
97 94 180 101 239 6 49 47 155 168 429 l53 120 7 210 c5 145 12 230 24 275 12
44 16 88 12 135 -5 82 -69 295 -101 340 -12 17 -34 55 -49 85 -37 75 -44 82
-111 112 -56 25 -60 29 -72 75 -7 26 -13 73 -14 103 0 30 -11 109 -25 175 -18
87 -25 151 -25 233 l0 113 -62 70 c-34 38 -87 109 -118 158 -74 119 -151 211
-231 276 -37 30 -91 82 -120 116 -30 34 -87 90 -127 125 -41 34 -128 125 -194
201 -183 212 -307 350 -377 422 -38 41 -74 90 -92 128 -15 33 -41 70 -56 81
-32 22 -228 100 -316 126 -64 19 -234 105 -330 167 l-60 39 -146 0 c-119 0
-166 5 -256 25 -146 33 -166 32 -261 -14z m-1770 -2950 c-5 -23 -2 -30 13 -35
10 -3 29 -26 43 -50 28 -52 24 -66 -45 -144 l-40 -45 40 6 c22 4 50 7 62 7 16
0 23 8 28 30 10 44 25 36 25 -13 0 -42 -3 -45 -94 -125 -51 -45 -110 -106
-131 -136 l-37 -55 22 -31 23 -32 -40 -41 c-32 -34 -43 -54 -53 -105 -7 -34
-11 -64 -9 -66 12 -11 142 20 192 45 54 28 62 29 114 19 43 -7 69 -7 112 4 90
22 190 28 292 15 131 -16 264 -16 331 -1 52 12 59 17 88 62 l32 50 -21 26
c-32 41 -25 46 27 21 26 -14 54 -22 62 -20 8 3 21 7 29 9 9 3 1 17 -26 47 -21
23 -45 56 -52 74 -10 25 -20 33 -44 35 -31 3 -30 4 27 31 48 22 65 26 91 18
26 -7 39 -4 71 15 42 25 41 30 0 14 -33 -12 -32 -5 4 48 16 24 30 48 32 54 3
8 27 3 71 -14 l66 -26 98 42 c54 24 99 39 101 35 2 -4 -6 -21 -18 -37 -21 -28
-21 -30 -4 -64 16 -35 16 -37 -6 -68 -12 -17 -20 -34 -17 -37 11 -10 70 17
114 53 l43 36 45 -27 c26 -15 47 -35 51 -49 5 -20 14 -25 55 -30 56 -8 62 -19
18 -35 -21 -7 -28 -15 -23 -23 18 -31 48 -68 55 -68 3 0 23 21 44 46 l37 45
-31 39 c-38 47 -40 64 -7 56 19 -5 25 -1 31 17 5 16 8 18 12 7 3 -8 18 -28 33
-45 16 -16 34 -49 41 -72 11 -41 14 -43 49 -43 32 0 39 4 50 29 6 16 23 40 37
53 14 12 33 39 43 59 20 38 87 89 119 89 11 0 33 -21 56 -55 l38 -55 54 0 c50
0 58 -3 100 -44 l46 -43 -13 -47 c-7 -25 -16 -46 -21 -46 -5 0 -17 17 -28 38
l-20 37 -1 -41 c0 -32 6 -46 30 -69 42 -40 37 -47 -17 -25 -27 10 -61 21 -78
25 -26 6 -28 8 -14 18 15 12 39 68 39 92 0 7 -18 20 -40 30 l-40 18 -31 -29
c-25 -24 -32 -26 -40 -14 -6 10 -7 1 -3 -27 l7 -43 -89 0 c-49 0 -114 -7 -144
-15 -62 -17 -118 -19 -139 -6 -11 7 -28 -1 -60 -28 -26 -21 -64 -50 -86 -64
l-40 -27 53 0 c49 0 53 -2 47 -20 -3 -11 -1 -35 6 -54 10 -27 10 -40 -1 -65
-7 -17 -15 -31 -19 -31 -3 0 -26 12 -50 25 -24 14 -45 24 -47 22 -2 -2 10 -16
26 -32 17 -16 30 -32 30 -36 0 -3 -18 -19 -40 -34 -29 -20 -48 -46 -72 -97
-34 -74 -31 -72 -99 -52 -21 6 -117 -104 -97 -110 7 -3 30 -9 51 -15 l37 -9 0
39 c0 34 3 39 24 39 27 0 39 -12 54 -55 l10 -30 1 38 c1 35 3 38 24 31 31 -9
31 -9 12 -38 -13 -19 -16 -44 -14 -108 2 -46 0 -108 -5 -139 -8 -55 -7 -56 18
-63 24 -6 26 -11 26 -57 0 -33 11 -78 32 -130 33 -85 33 -81 -11 -108 -13 -8
-12 -13 2 -35 25 -37 21 -45 -23 -52 l-40 -7 40 -47 c25 -30 55 -53 83 -64 41
-15 46 -22 71 -84 14 -37 26 -77 26 -88 0 -12 5 -36 11 -53 9 -25 9 -43 0 -72
-7 -21 -15 -39 -18 -39 -4 0 -18 10 -31 23 l-24 22 -30 -37 c-38 -48 -58 -49
-58 -3 0 19 -4 35 -10 35 -5 0 -10 -20 -10 -44 0 -41 -4 -47 -86 -128 l-87
-85 13 -66 c7 -38 9 -87 5 -116 l-7 -51 -66 -20 -67 -20 -152 72 c-148 71
-153 74 -168 116 l-17 42 -82 0 c-81 0 -82 0 -144 45 -34 25 -65 45 -69 45 -5
0 -14 -9 -20 -19 -9 -15 -29 -20 -92 -26 -72 -6 -84 -5 -116 15 -29 18 -44 21
-85 15 -60 -8 -64 0 -12 21 53 21 72 63 72 159 0 50 -4 75 -12 75 -6 0 -28 18
-49 41 l-37 40 -19 -21 c-11 -11 -26 -32 -34 -47 -13 -24 -12 -27 9 -41 29
-19 28 -38 -2 -46 -17 -4 -29 -19 -42 -51 -12 -33 -44 -72 -119 -144 -92 -88
-104 -104 -126 -165 -18 -49 -32 -72 -52 -84 -16 -9 -49 -50 -74 -91 -52 -81
-116 -151 -181 -196 l-44 -29 -19 24 c-10 14 -23 39 -29 57 -9 27 -17 32 -53
38 -101 15 -94 10 -99 78 -3 50 -10 71 -36 109 -18 26 -32 49 -32 52 0 4 -9
25 -19 49 -31 68 -41 138 -41 295 0 81 -7 246 -15 367 -23 347 -17 594 16 630
5 5 9 20 9 33 0 62 114 450 182 622 17 41 52 104 78 140 64 87 103 169 125
260 21 91 30 103 39 54 7 -35 52 -104 69 -104 11 0 8 180 -4 242 -11 53 -10
57 25 126 20 40 38 72 41 72 2 0 2 -13 -1 -29z m2738 -1324 c3 -6 -7 -28 -24
-50 -23 -29 -33 -35 -39 -25 -11 16 -12 82 -2 92 10 9 56 -3 65 -17z m924
-513 l29 -12 -45 -13 c-25 -7 -51 -17 -57 -22 -16 -12 -16 -12 3 53 16 53 16
54 29 30 7 -14 26 -30 41 -36z m-6 -173 c-6 -12 -10 -34 -8 -49 2 -21 8 -27
26 -26 12 0 22 -1 22 -2 0 -2 -25 -22 -55 -45 -55 -42 -64 -64 -20 -53 22 5
24 2 27 -33 2 -31 7 -39 26 -41 12 -2 22 -9 22 -16 0 -8 3 -28 6 -46 l7 -32
-29 15 c-16 8 -40 17 -54 20 -17 4 -41 28 -68 67 -43 62 -46 80 -13 80 20 0
75 75 67 89 -3 5 -25 5 -48 1 l-43 -8 38 32 38 32 -17 36 c-11 24 -14 45 -10
64 l7 27 46 -45 c40 -40 44 -48 33 -67z m-4335 -106 c4 -58 11 -107 15 -110
10 -6 13 -295 4 -375 -3 -31 -12 -64 -19 -74 -13 -17 -16 -16 -52 20 -72 73
-85 100 -95 204 -4 52 -13 117 -19 143 -10 43 -9 50 7 62 27 20 32 19 61 -15
13 -16 28 -30 32 -30 18 0 41 106 41 191 0 49 4 89 9 89 5 0 12 -47 16 -105z
m3476 -7 c11 -21 11 -22 -4 -9 -10 7 -17 17 -17 22 0 15 9 10 21 -13z m554
-102 c14 -20 14 -28 3 -45 -20 -32 -28 -25 -28 24 0 25 2 45 5 45 2 0 12 -11
20 -24z m-1377 -348 c-3 -8 -26 -14 -59 -15 l-54 -2 45 14 c59 17 73 18 68 3z
m-1371 -435 c5 -19 94 -93 112 -93 6 0 34 14 62 32 l51 31 75 -37 c65 -32 81
-36 119 -30 34 5 49 2 72 -14 19 -14 33 -18 43 -11 25 15 34 10 73 -40 31 -41
49 -54 107 -77 79 -31 83 -41 36 -97 l-33 -38 -84 15 c-115 20 -288 63 -327
81 -17 8 -34 15 -39 15 -4 0 -34 13 -68 29 -34 15 -85 34 -114 41 -29 7 -69
20 -90 30 -45 22 -132 97 -132 114 0 7 26 24 58 39 70 31 73 31 79 10z m152
-619 c64 -47 130 -101 146 -119 27 -30 38 -35 110 -45 68 -9 83 -15 102 -38
12 -15 21 -34 20 -42 -3 -21 -120 -41 -170 -30 -35 7 -40 6 -59 -21 -12 -16
-26 -29 -31 -29 -5 0 -4 7 3 15 15 19 6 32 -28 40 -51 11 -80 40 -156 154 -66
98 -76 119 -76 157 0 27 5 44 12 44 6 0 63 -39 127 -86z m421 -1789 c8 -10 10
-19 4 -25 -5 -5 -14 1 -21 16 -12 27 -2 32 17 9z"/>
<path d="M7661 13111 l-25 -34 32 -58 c21 -38 32 -71 32 -98 0 -44 2 -46 31
-31 30 17 26 82 -10 134 -17 25 -31 59 -33 82 l-3 39 -24 -34z"/>
<path d="M7501 13024 c-12 -27 -18 -27 -83 -8 -13 4 -21 -3 -28 -21 -6 -15 -8
-30 -6 -33 2 -4 35 -7 73 -7 l68 1 3 47 c3 52 -8 61 -27 21z"/>
<path d="M7790 12965 c-23 -61 -8 -141 31 -161 l29 -15 0 44 c0 48 -25 143
-40 152 -6 3 -15 -6 -20 -20z"/>
<path d="M6071 12592 c-13 -25 -14 -62 -2 -62 8 0 24 71 17 78 -3 2 -9 -5 -15
-16z"/>
<path d="M6685 12459 c-71 -4 -150 -14 -175 -23 -25 -8 -43 -15 -40 -16 3 -1
32 -7 64 -14 33 -6 61 -16 63 -22 2 -6 -14 -19 -35 -27 -44 -18 -95 -51 -132
-85 -13 -12 -29 -22 -35 -22 -6 0 -24 -13 -40 -30 l-28 -29 29 -11 c16 -6 67
-26 114 -45 47 -18 127 -47 178 -65 50 -18 92 -36 92 -40 0 -25 -18 -44 -61
-66 -45 -22 -57 -24 -129 -18 -44 4 -80 10 -80 14 0 3 -31 14 -70 24 -38 10
-70 24 -70 30 0 6 7 22 16 34 15 21 14 27 -6 76 -12 30 -32 63 -44 75 -21 20
-28 21 -92 11 -38 -5 -75 -10 -81 -10 -20 0 -18 -200 2 -226 9 -12 14 -43 15
-89 0 -46 9 -98 25 -150 16 -51 25 -104 25 -146 0 -36 3 -100 6 -142 l7 -77
48 -31 c47 -30 49 -30 106 -19 32 7 73 18 92 26 51 21 132 -3 185 -55 23 -23
45 -41 48 -41 4 0 19 16 34 35 20 27 24 39 16 47 -28 28 -7 26 58 -7 38 -19
72 -35 76 -35 14 0 -120 136 -149 152 l-32 17 33 7 c24 5 32 12 32 28 0 18 2
17 19 -9 10 -16 41 -50 70 -74 49 -41 53 -42 66 -25 12 17 18 17 60 6 l47 -12
136 89 c180 118 225 154 282 226 81 102 110 153 160 280 17 44 34 87 38 95 4
8 5 53 3 100 l-3 85 -55 44 c-79 62 -192 101 -299 101 -59 0 -116 9 -215 35
-142 37 -151 37 -374 24z m169 -173 c3 -14 3 -32 0 -41 -6 -14 -10 -10 -20 15
-18 41 -17 50 0 50 8 0 17 -11 20 -24z m266 -72 c22 -20 40 -42 40 -48 0 -12
-98 -41 -107 -32 -8 8 9 116 18 116 5 0 27 -16 49 -36z"/>
<path d="M7239 11371 c-61 -49 -87 -89 -88 -134 -1 -15 4 -18 29 -13 17 3 43
8 59 12 56 10 191 121 191 156 0 8 -23 15 -81 23 -44 6 -48 5 -110 -44z"/>
<path d="M7285 10920 c3 -5 27 -10 53 -9 38 1 42 2 22 9 -37 12 -82 12 -75 0z"/>
<path d="M6630 8380 c-11 -21 -11 -21 30 -33 17 -5 50 9 50 22 0 8 -44 31 -60
31 -5 0 -14 -9 -20 -20z"/>
<path d="M6825 8170 c20 -22 98 -70 114 -70 18 0 12 39 -6 49 -10 5 -42 16
-72 25 -54 16 -54 16 -36 -4z"/>
<path d="M6354 7755 c0 -77 2 -107 3 -67 2 40 2 103 0 140 -2 37 -3 4 -3 -73z"/>
<path d="M6159 7359 l-64 -61 68 57 c61 53 74 65 63 65 -2 0 -32 -27 -67 -61z"/>
<path d="M8943 6133 c-12 -38 -25 -89 -29 -115 -7 -56 0 -59 61 -25 34 19 42
31 58 82 l18 60 -38 32 c-21 18 -40 33 -44 33 -3 0 -15 -30 -26 -67z"/>
<path d="M8797 5750 c-21 -27 -35 -50 -32 -50 3 0 24 9 45 20 33 17 40 26 40
50 0 17 -4 30 -8 30 -4 0 -25 -22 -45 -50z"/>
</g>
</svg>
